<?xml version="1.0" standalone="no"?>
<!DOCTYPE svg PUBLIC "-//W3C//DTD SVG 20010904//EN"
 "http://www.w3.org/TR/2001/REC-SVG-20010904/DTD/svg10.dtd">
<svg version="1.0" xmlns="http://www.w3.org/2000/svg"
 width="78.000000pt" height="78.000000pt" viewBox="0 0 78.000000 78.000000"
 preserveAspectRatio="xMidYMid meet">
<metadata>
Created by potrace 1.11, written by Peter Selinger 2001-2013
</metadata>
<g transform="translate(0.000000,78.000000) scale(0.100000,-0.100000)"
fill="#000000" stroke="none">
<path d="M174 676 c-10 -26 4 -48 28 -44 33 4 33 52 0 56 -13 2 -25 -3 -28
-12z m46 -16 c0 -13 -7 -20 -20 -20 -13 0 -20 7 -20 20 0 13 7 20 20 20 13 0
20 -7 20 -20z"/>
<path d="M395 528 c-8 -20 -13 -70 -13 -129 1 -106 -11 -139 -62 -182 -28 -24
-86 -47 -118 -47 -7 0 -21 5 -31 12 -26 16 -53 3 -49 -24 4 -27 33 -35 56 -15
9 8 33 17 52 21 57 10 113 48 138 93 19 36 23 59 26 152 3 138 8 145 91 138
38 -4 53 -2 40 3 -11 5 -42 9 -68 9 -45 1 -49 -1 -62 -31z m-232 -355 c-7 -2
-13 -9 -13 -14 0 -6 5 -7 10 -4 6 3 10 1 10 -4 0 -6 -9 -11 -20 -11 -13 0 -20
7 -20 20 0 14 6 20 23 19 12 0 16 -3 10 -6z"/>
<path d="M581 192 c-8 -15 -7 -23 4 -32 23 -19 50 -8 50 20 0 32 -39 41 -54
12z m49 -12 c0 -13 -7 -20 -20 -20 -13 0 -20 7 -20 20 0 13 7 20 20 20 13 0
20 -7 20 -20z"/>
</g>
</svg>
